<svg xmlns="http://www.w3.org/2000/svg" xmlns:xlink="http://www.w3.org/1999/xlink" version="1.1" x="0px" y="0px" viewBox="0 0 100 125" enable-background="new 0 0 100 100" xml:space="preserve"><path d="M94.995,63.049c-0.001-0.03,0.006,0.48,0.004,0.45L94.075,47l0,0L94,45.916c0-1.275-0.775-2.4-2.05-2.524  c-1.275-0.124-2.392,0.81-2.515,2.085l-0.026,0.362l-1.01,8.187c-0.006-0.007-0.011-0.01-0.017-0.017  c-1.751-1.752-3.954-3.82-6.612-6.008c-3.714-3.04-8.311-6.315-13.702-9.038c-5.372-2.717-11.594-4.852-18.043-5.433  c-0.812-0.074-1.645-0.105-2.462-0.156c-0.817-0.043-1.554-0.004-2.333-0.01l-0.63,0.003l-0.59,0.043l-1.176,0.087  c-0.781,0.059-1.56,0.117-2.336,0.175c-0.776,0.035-1.543,0.165-2.305,0.281c-0.761,0.116-1.519,0.231-2.272,0.345  c-0.755,0.093-1.494,0.262-2.225,0.438c-0.731,0.168-1.457,0.335-2.177,0.501c-5.73,1.449-10.81,3.679-14.797,6.134  c-4.007,2.436-6.971,4.985-8.894,6.89C5.901,50.172,5,51.434,5,51.434s0.995-1.192,3.047-2.937c2.045-1.741,5.16-4.03,9.244-6.106  c4.066-2.098,9.143-3.877,14.728-4.845c0.7-0.106,1.406-0.221,2.117-0.328c0.709-0.115,1.423-0.238,2.153-0.271  c0.726-0.054,1.456-0.14,2.189-0.195c0.733-0.056,6.644,0.144,6.644,0.144c0.755,0.063,1.561,0.075,2.278,0.173  c0.716,0.105,1.423,0.117,2.14,0.238c5.824,0.975,11.326,3.309,16.06,6.172c4.747,2.869,8.764,6.197,11.985,9.27  c2.135,2.049,3.917,3.966,5.354,5.621l-7.978-0.857L74.6,57.473c-1.274-0.136-2.418,0.742-2.554,2.016  c-0.136,1.274,0.726,2.511,2,2.511H74v0.087l15.835,4.16c1.344,0.701,3.063,0.482,4.167-0.667c0.61-0.634,0.928-1.452,0.968-2.27  C94.977,63.223,94.995,63.137,94.995,63.049z"/></svg>