<?xml version="1.0" encoding="UTF-8"?>
<svg xmlns="http://www.w3.org/2000/svg" xmlns:xlink="http://www.w3.org/1999/xlink" width="80px" height="55px" viewBox="0 0 80 55" version="1.1">
<g id="surface1">
<path style=" stroke:none;fill-rule:nonzero;fill:rgb(0%,0%,0%);fill-opacity:1;" d="M 75.996094 50.4375 C 75.996094 50.414062 76 50.824219 76 50.800781 L 75.261719 37.601562 L 75.199219 36.734375 C 75.199219 35.710938 74.578125 34.8125 73.558594 34.714844 C 72.539062 34.613281 71.644531 35.363281 71.546875 36.382812 L 71.527344 36.671875 L 70.71875 43.222656 C 70.714844 43.214844 70.710938 43.210938 70.707031 43.207031 C 69.304688 41.804688 67.542969 40.152344 65.414062 38.402344 C 62.445312 35.96875 58.765625 33.347656 54.453125 31.171875 C 50.15625 28.996094 45.179688 27.289062 40.019531 26.824219 C 39.371094 26.765625 38.703125 26.738281 38.050781 26.699219 C 37.398438 26.664062 36.808594 26.695312 36.183594 26.691406 L 35.679688 26.695312 L 35.207031 26.726562 L 34.265625 26.796875 C 33.640625 26.84375 33.019531 26.890625 32.398438 26.9375 C 31.777344 26.964844 31.164062 27.070312 30.554688 27.164062 C 29.945312 27.253906 29.339844 27.347656 28.738281 27.4375 C 28.132812 27.511719 27.542969 27.648438 26.957031 27.789062 C 26.371094 27.921875 25.792969 28.058594 25.214844 28.191406 C 20.632812 29.347656 16.566406 31.132812 13.378906 33.097656 C 10.171875 35.046875 7.800781 37.085938 6.261719 38.609375 C 4.722656 40.136719 4 41.148438 4 41.148438 C 4 41.148438 4.796875 40.195312 6.4375 38.796875 C 8.074219 37.40625 10.566406 35.574219 13.832031 33.914062 C 17.085938 32.234375 21.148438 30.8125 25.613281 30.035156 C 26.175781 29.953125 26.738281 29.859375 27.308594 29.773438 C 27.875 29.683594 28.445312 29.585938 29.03125 29.558594 C 29.613281 29.515625 30.195312 29.445312 30.78125 29.402344 C 31.367188 29.355469 36.097656 29.515625 36.097656 29.515625 C 36.703125 29.566406 37.347656 29.578125 37.921875 29.65625 C 38.492188 29.738281 39.058594 29.75 39.632812 29.84375 C 44.292969 30.625 48.691406 32.492188 52.480469 34.78125 C 56.277344 37.078125 59.492188 39.742188 62.066406 42.199219 C 63.777344 43.839844 65.203125 45.371094 66.351562 46.695312 L 59.96875 46.011719 L 59.679688 45.976562 C 58.660156 45.871094 57.746094 46.570312 57.636719 47.589844 C 57.527344 48.609375 58.21875 49.601562 59.238281 49.601562 L 59.199219 49.601562 L 59.199219 49.667969 L 71.867188 52.996094 C 72.941406 53.558594 74.320312 53.382812 75.203125 52.464844 C 75.691406 51.957031 75.945312 51.300781 75.976562 50.648438 C 75.980469 50.578125 75.996094 50.507812 75.996094 50.4375 Z M 75.996094 50.4375 "/>
</g>
</svg>
